<?xml version="1.0" encoding="UTF-8"?>
<svg width="55px" height="55px" viewBox="0 0 55 55" version="1.1" xmlns="http://www.w3.org/2000/svg" xmlns:xlink="http://www.w3.org/1999/xlink">
    <!-- Generator: Sketch 50.2 (55047) - http://www.bohemiancoding.com/sketch -->
    <title>ico_turbo</title>
    <desc>Created with Sketch.</desc>
    <defs></defs>
    <g id="Verstka" stroke="none" stroke-width="1" fill="none" fill-rule="evenodd">
        <g id="_01_Main" transform="translate(-977.000000, -208.000000)">
            <g id="TABLO" transform="translate(714.000000, 191.000000)">
                <g id="ico_turbo" transform="translate(263.000000, 17.000000)">
                    <circle id="sphere-copy-8" fill="#FFFFFF" cx="27.5" cy="27.5" r="27.5"></circle>
                    <path d="M17.1875009,26.354166 L26.3541665,28.6458335 L22.9166667,25.2083337 C22.9166667,25.2083337 28.1637156,19.9612848 29.7916668,18.3333336 C33.229167,14.8958334 40.1041668,13.75 40.1041668,13.75 L41.2500002,14.8958334 C41.2500002,14.8958334 40.0943959,21.7610623 36.6666664,25.2083332 C33.2723536,28.6219969 29.7916663,32.0833333 29.7916663,32.0833333 L28.6458335,37.8124997 L22.9166664,41.2499996 L22.9166661,34.375 L20.6249997,32.0833335 L13.75,32.0833336 L17.1875009,26.354166 Z M16.0416669,34.375 L19.4791669,34.375 L20.6250002,35.5208333 L20.6250002,38.9583333 L13.7500002,41.25 L16.0416669,34.375 Z" id="Combined-Shape-Copy" fill="#5A9FEB"></path>
                </g>
            </g>
        </g>
    </g>
</svg>