<?xml version="1.0" encoding="UTF-8"?>
<svg width="56px" height="55px" viewBox="0 0 56 55" version="1.1" xmlns="http://www.w3.org/2000/svg" xmlns:xlink="http://www.w3.org/1999/xlink">
    <!-- Generator: Sketch 50.2 (55047) - http://www.bohemiancoding.com/sketch -->
    <title>ico_adblock</title>
    <desc>Created with Sketch.</desc>
    <defs></defs>
    <g id="Verstka" stroke="none" stroke-width="1" fill="none" fill-rule="evenodd">
        <g id="_01_Main" transform="translate(-1173.000000, -208.000000)">
            <g id="TABLO" transform="translate(714.000000, 191.000000)">
                <g id="ico_adblock" transform="translate(459.000000, 17.000000)">
                    <ellipse id="sphere-copy-5" fill="#FFFFFF" cx="28" cy="27.5" rx="28" ry="27.5"></ellipse>
                    <g id="noun_1667622_cc" transform="translate(12.320000, 12.346939)" fill="#EC1C24" fill-rule="nonzero" stroke="#EC1C24" stroke-width="0.5">
                        <path d="M25.1925018,6.17402953 C25.5268772,6.50922521 25.8463914,6.85931848 26.1436139,7.22430933 C26.2253501,7.32114364 26.303371,7.42170235 26.381392,7.51853665 C26.5114268,7.6824101 26.2142043,7.29507287 26.3368086,7.46267071 C26.3702461,7.50736347 26.3999684,7.54833183 26.4334059,7.59302458 C26.5745866,7.7866932 26.7157673,7.98408621 26.8458022,8.18147923 C27.3547957,8.9487049 27.7894837,9.76062333 28.1461507,10.6097857 C28.1089979,10.5204002 28.0718451,10.4310147 28.0346923,10.3416292 C28.53254,11.533436 28.8706307,12.7848333 29.0415336,14.0623012 C29.0266725,13.9617425 29.0155266,13.8649082 29.0006655,13.7643495 C29.1678532,15.0529907 29.1678532,16.3565295 29.0006655,17.6451707 C29.0155266,17.5446119 29.0266725,17.4477776 29.0415336,17.3472189 C28.8706307,18.6246869 28.53254,19.8760841 28.0346923,21.067891 C28.0718451,20.9785055 28.1089979,20.88912 28.1461507,20.7997345 C27.8675046,21.4589526 27.5442751,22.0995488 27.1727469,22.7103498 C26.9795523,23.0269235 26.7752118,23.3397728 26.5597255,23.641449 C26.5114268,23.7084881 26.4668434,23.7718028 26.4185448,23.8351176 C26.3925378,23.8723615 26.3665308,23.9058811 26.3368086,23.9431251 C26.236496,24.0809277 26.4111142,23.8462908 26.4148295,23.8462908 C26.2996558,24.0064398 26.1696209,24.1591401 26.0433013,24.3081159 C25.56403,24.881673 25.03646,25.4142617 24.4754525,25.9096064 C24.3379871,26.0287871 24.2005216,26.1442434 24.0630562,26.2596997 C23.9924659,26.3155656 23.9218755,26.3714316 23.8512852,26.4272975 C23.7955559,26.4719903 23.6840975,26.5427538 23.9478825,26.3528096 C23.9032991,26.3826048 23.862431,26.4161243 23.8178476,26.4496439 C23.5206251,26.6731077 23.2122567,26.8853983 22.8964578,27.0827913 C22.2165613,27.5148213 21.5032272,27.8835365 20.7638861,28.2001102 C20.8530529,28.1628663 20.9422197,28.1256223 21.0313864,28.0883783 C19.8424963,28.5874475 18.5941617,28.9263676 17.3198201,29.0976898 C17.4201327,29.0827922 17.51673,29.071619 17.6170426,29.0567214 C16.3315551,29.2243193 15.0312066,29.2243193 13.7457191,29.0567214 C13.8460317,29.071619 13.9426291,29.0827922 14.0429417,29.0976898 C12.7686001,28.9263676 11.5202654,28.5874475 10.3313753,28.0883783 C10.4205421,28.1256223 10.5097088,28.1628663 10.5988756,28.2001102 C9.94127074,27.9207805 9.3022423,27.596758 8.69293612,27.2243184 C8.37713718,27.0306497 8.06505352,26.8258079 7.76411571,26.6097929 C7.69724064,26.5613758 7.63408085,26.516683 7.57092106,26.4682659 C7.53376825,26.4421951 7.50033071,26.4161243 7.4631779,26.3863292 C7.32571248,26.2857705 7.55977522,26.4608171 7.55977522,26.4645415 C7.40001811,26.3490852 7.24769156,26.2187313 7.0990803,26.0921018 C6.52692693,25.6116547 5.99564165,25.0827904 5.5015092,24.5204065 C5.38262018,24.3826039 5.26744645,24.2448012 5.15227272,24.1069985 C5.0965435,24.036235 5.04081427,23.9654715 4.98508505,23.8947079 C4.94050167,23.838842 4.86991132,23.7271101 5.05939068,23.9915422 C5.02966843,23.9468495 4.99623089,23.9058811 4.96279336,23.8611884 C4.73987646,23.5632366 4.52810541,23.2541117 4.33119548,22.937538 C3.90022281,22.2559735 3.53240993,21.5408894 3.21661099,20.7997345 C3.25376381,20.88912 3.29091663,20.9785055 3.32806944,21.067891 C2.8302217,19.8760841 2.49213108,18.6246869 2.32122812,17.3472189 C2.33608925,17.4477776 2.34723509,17.5446119 2.36209622,17.6451707 C2.19490855,16.3565295 2.19490855,15.0529907 2.36209622,13.7643495 C2.34723509,13.8649082 2.33608925,13.9617425 2.32122812,14.0623012 C2.49213108,12.7848333 2.8302217,11.533436 3.32806944,10.3416292 C3.29091663,10.4310147 3.25376381,10.5204002 3.21661099,10.6097857 C3.49525712,9.95056755 3.81848662,9.30997136 4.19001478,8.69917034 C4.38320943,8.38259664 4.58754991,8.06974733 4.80303625,7.76807122 C4.85133491,7.70103208 4.89591829,7.63771734 4.94421695,7.5744026 C4.97022392,7.53715864 4.99623089,7.50363907 5.02595315,7.4663951 C5.12626575,7.32859244 4.95164751,7.56322941 4.94793223,7.56322941 C5.06310596,7.40308036 5.19314082,7.25038011 5.3194604,7.10140425 C5.79873173,6.52784719 6.32630172,5.9952585 6.88730924,5.49991377 C7.02477466,5.38073308 7.16224008,5.26527679 7.2997055,5.1498205 C7.37029586,5.09395455 7.44088621,5.03808861 7.51147656,4.98222266 C7.56720578,4.9375299 7.67866423,4.86676637 7.41487924,5.05671059 C7.45946262,5.02691542 7.50033071,4.99339585 7.54491409,4.95987628 C7.84213662,4.73641249 8.150505,4.5241219 8.46630394,4.32672888 C9.14620048,3.89469889 9.85953455,3.52598364 10.5988756,3.20940994 C10.5097088,3.24665391 10.4205421,3.28389787 10.3313753,3.32114184 C11.5202654,2.82207271 12.7686001,2.48315263 14.0429417,2.31183039 C13.9426291,2.32672798 13.8460317,2.33790117 13.7457191,2.35279875 C15.0312066,2.18520091 16.3315551,2.18520091 17.6170426,2.35279875 C17.51673,2.33790117 17.4201327,2.32672798 17.3198201,2.31183039 C18.5941617,2.48315263 19.8424963,2.82207271 21.0313864,3.32114184 C20.9422197,3.28389787 20.8530529,3.24665391 20.7638861,3.20940994 C21.6109703,3.566952 22.4209017,4.00270639 23.1862498,4.51294871 C23.3794444,4.63957819 23.5689238,4.77365646 23.7546878,4.91145913 C23.8067018,4.94870309 23.8550004,4.98594706 23.9032991,5.02319102 C24.0556257,5.13864731 23.6878128,4.85186878 23.8475699,4.97849826 C23.9404519,5.0492618 24.0296187,5.12374973 24.1225007,5.19823766 C24.4940289,5.50736256 24.8506959,5.83510945 25.1925018,6.17402953 C25.6048981,6.58743754 26.3628155,6.62095711 26.7677812,6.17402953 C27.1764622,5.72710195 27.2098998,5.03436421 26.7677812,4.59488543 C24.4977442,2.33045238 21.5329494,0.75503267 18.3675295,0.229892768 C16.8331182,-0.0233661919 15.287561,-0.079232139 13.7457191,0.12188527 C12.0887035,0.337900265 10.5134241,0.788552238 8.99387393,1.49618757 C6.06251672,2.85559228 3.57327803,5.20568645 1.99799862,8.02877897 C0.467302587,10.7773836 -0.234885641,14.0064353 0.0697674525,17.1423771 C0.225809281,18.7550408 0.604768007,20.3118385 1.2326506,21.8053215 C1.87539432,23.3323241 2.74105494,24.7252483 3.81477134,25.9840943 C5.90647489,28.4347472 8.78953344,30.2075599 11.9140853,30.9747856 C14.9457551,31.7159405 18.2189182,31.5557915 21.1428449,30.4459213 C24.2636814,29.2615632 26.9349689,27.1349328 28.7851792,24.3453599 C30.523931,21.7196604 31.4267444,18.531577 31.3561541,15.3807376 C31.2855637,12.218725 30.260146,9.06788559 28.3913593,6.51294961 C27.8972269,5.83510945 27.358511,5.19451326 26.7677812,4.59860982 C26.355385,4.18520182 25.5974675,4.15540664 25.1925018,4.59860982 C24.7838209,5.041813 24.7503833,5.73082635 25.1925018,6.17402953 Z" id="Shape"></path>
                        <path d="M25.3217069,4.68578095 C25.1354827,4.87243474 24.952983,5.05535546 24.7667587,5.24200925 C24.2676778,5.74224141 23.7685969,6.24247357 23.269516,6.74270573 C22.5283436,7.48558782 21.7871711,8.22846991 21.0459987,8.971352 C20.1446735,9.87475636 19.2433482,10.7781607 18.342023,11.6815651 C17.3513101,12.6745632 16.3605973,13.6675614 15.3661599,14.6642927 C14.3642736,15.6684901 13.3661117,16.6689544 12.3642254,17.6731518 C11.4368288,18.6026877 10.5057077,19.5359566 9.57831102,20.4654925 C8.78872031,21.2569046 7.9991296,22.0483167 7.21326337,22.8359957 C6.64714173,23.4034232 6.08474458,23.9671176 5.51862294,24.5345452 C5.25046005,24.8033266 4.97857269,25.0721081 4.7104098,25.3446226 C4.69923635,25.3558218 4.6880629,25.3670211 4.67688944,25.3782203 C4.26347167,25.7925917 4.23367579,26.5541392 4.67688944,26.9610444 C5.12382758,27.3716828 5.81658169,27.4052805 6.25607086,26.9610444 C6.44229509,26.7743907 6.62479483,26.5914699 6.81101905,26.4048162 C7.31009997,25.904584 7.80918089,25.4043518 8.30826181,24.9041197 C9.04943422,24.1612376 9.79060663,23.4183555 10.531779,22.6754734 C11.4331043,21.772069 12.3344295,20.8686647 13.2357548,19.9652603 C14.2264676,18.9722622 15.2171805,17.979264 16.2116179,16.9825327 C17.2135042,15.9783353 18.211666,14.977871 19.2135524,13.9736736 C20.140949,13.0441377 21.0720701,12.1108688 21.9994668,11.1813329 C22.7890575,10.3899208 23.5786482,9.59850875 24.3645144,8.81082974 C24.930636,8.24340222 25.4930332,7.67970777 26.0591548,7.11228024 C26.3273177,6.84349878 26.5992051,6.57471732 26.867368,6.30220278 C26.8785414,6.29100356 26.8897149,6.27980433 26.9008883,6.2686051 C27.3143061,5.85423368 27.344102,5.09268621 26.9008883,4.68578095 C26.4539502,4.27514261 25.7611961,4.24154492 25.3217069,4.68578095 Z" id="Shape"></path>
                    </g>
                </g>
            </g>
        </g>
    </g>
</svg>