<?xml version="1.0" encoding="UTF-8"?>
<svg width="56px" height="55px" viewBox="0 0 56 55" version="1.1" xmlns="http://www.w3.org/2000/svg" xmlns:xlink="http://www.w3.org/1999/xlink">
    <!-- Generator: Sketch 50.2 (55047) - http://www.bohemiancoding.com/sketch -->
    <title>ico_sync</title>
    <desc>Created with Sketch.</desc>
    <defs></defs>
    <g id="Verstka" stroke="none" stroke-width="1" fill="none" fill-rule="evenodd">
        <g id="_01_Main" transform="translate(-1173.000000, -327.000000)">
            <g id="TABLO" transform="translate(714.000000, 191.000000)">
                <g id="ico_sync" transform="translate(459.000000, 136.000000)">
                    <ellipse id="sphere-copy-6" fill="#FFFFFF" cx="28" cy="27.5" rx="28" ry="27.5"></ellipse>
                    <g id="Group-Copy" transform="translate(11.666667, 11.458333)" fill="#5A9FEB" fill-rule="nonzero">
                        <path d="M3.37223283,18.7210163 L3.37223283,18.7206394 C3.25077035,18.0060091 3.19217344,17.2970326 3.19178538,16.597102 C3.19178538,10.3953476 7.81279212,4.9123696 14.3248104,3.87246196 C15.0613464,3.75373383 15.7908974,3.69681971 16.5107468,3.6964428 C19.911696,3.69531205 23.1030934,4.97569126 25.5055667,7.12485884 L21.5659916,7.00273848 C20.6850976,6.97560062 19.9477855,7.64726261 19.9198453,8.50248205 C19.891517,9.35845531 20.5830381,10.0745932 21.4639321,10.1017311 L28.6857103,10.3256184 C29.0889036,10.4153241 29.5266342,10.3569023 29.9022753,10.1232152 C30.3702745,9.83186017 30.6000054,9.34149415 30.6081547,8.83906687 L30.6093189,8.83454389 L30.6093189,8.83379006 L30.847199,1.59928945 C30.8755273,0.744070008 30.1840062,0.0279320914 29.3027242,0.000794233478 C28.4218302,-0.0263436244 27.6849061,0.645318358 27.6565778,1.50091471 L27.5498616,4.75142702 C24.586643,2.14770032 20.6866499,0.597073278 16.5107468,0.595942533 C15.6170469,0.595565619 14.7124814,0.666425581 13.8044233,0.813045397 C5.72891521,2.11000885 0,8.89258875 0,16.597102 C0,17.4651365 0.0725670355,18.3437247 0.222745874,19.2257051 C0.366327709,20.069994 1.18746058,20.6421505 2.05710083,20.503069 C2.92712914,20.3628567 3.51581466,19.5653052 3.37223283,18.7210163 Z" id="Shape"></path>
                        <path d="M30.7788034,12.7263348 C29.9083419,12.8659277 29.3194888,13.6650023 29.4632063,14.5104821 L29.4632063,14.5101048 C29.5847834,15.2246692 29.6430473,15.9339517 29.6434357,16.6345568 C29.6434357,22.8415332 25.018065,28.3301724 18.499897,29.3737231 C17.764996,29.4914339 17.0339792,29.5476483 16.3126731,29.5480255 C12.8972478,29.5491574 9.69234913,28.2596214 7.28488798,26.0966871 L11.2813978,26.2208115 C12.1631236,26.2479756 12.9011321,25.5756663 12.9290987,24.7196227 C12.9574537,23.8628245 12.2652795,23.1459965 11.3835537,23.1188325 L3.87645436,22.8856747 L3.80343037,22.8977476 C3.49579738,22.890202 3.18428015,22.9400027 2.90577907,23.1139279 C2.32857881,23.4730964 2.08115177,24.1303146 2.21710069,24.7452776 L1.99103706,31.628336 C1.962682,32.4843796 2.65485621,33.2012077 3.53697049,33.2283717 C4.41908476,33.2555357 5.15670475,32.5832264 5.18467139,31.7268055 L5.29032312,28.5139068 C8.25323271,31.1046742 12.1452561,32.6492501 16.3126731,32.6503819 C17.2056633,32.6507592 18.1110831,32.5805855 19.0207756,32.4353335 C27.1035214,31.1337246 32.8382353,24.3449857 32.8382353,16.6341795 C32.8382353,15.7653085 32.7655997,14.8866282 32.6156675,14.0041752 C32.4715616,13.1586953 31.6492649,12.5863647 30.7788034,12.7263348 Z" id="Shape"></path>
                    </g>
                </g>
            </g>
        </g>
    </g>
</svg>