<?xml version="1.0" encoding="UTF-8"?>
<svg width="56px" height="55px" viewBox="0 0 56 55" version="1.1" xmlns="http://www.w3.org/2000/svg" xmlns:xlink="http://www.w3.org/1999/xlink">
    <!-- Generator: Sketch 50.2 (55047) - http://www.bohemiancoding.com/sketch -->
    <title>ico_passowrd</title>
    <desc>Created with Sketch.</desc>
    <defs>
        <path d="M24.4386699,32.9266583 L26.2272171,32.9266583 L27.8926722,32.1071272 L27.8926722,30.7247788 L24.4386699,30.7247788 L24.4386699,27.4593438 C21.6924621,26.0046531 19.8333333,23.205243 19.8333333,19.9906163 C19.8333333,15.2783665 23.8282247,11.4583333 28.7561728,11.4583333 C33.684121,11.4583333 37.6790123,15.2783665 37.6790123,19.9906163 C37.6790123,23.4251256 35.5568542,26.3856733 32.4980088,27.7386773 L32.4980088,43.3855858 L28.4732275,45.2604167 L24.4386699,43.3855858 L24.4386699,41.7341762 L26.2272171,41.7341762 L27.8926722,40.9146451 L27.8926722,39.5322967 L24.4386699,39.5322967 L24.4386699,37.3304172 L26.2272171,37.3304172 L27.8926722,36.5108862 L27.8926722,35.1285378 L24.4386699,35.1285378 L24.4386699,32.9266583 Z M28.4683393,19.1649115 C29.7400679,19.1649115 30.7710076,18.1790965 30.7710076,16.963032 C30.7710076,15.7469676 29.7400679,14.7611526 28.4683393,14.7611526 C27.1966107,14.7611526 26.165671,15.7469676 26.165671,16.963032 C26.165671,18.1790965 27.1966107,19.1649115 28.4683393,19.1649115 Z" id="path-1"></path>
    </defs>
    <g id="Verstka" stroke="none" stroke-width="1" fill="none" fill-rule="evenodd">
        <g id="_01_Main" transform="translate(-779.000000, -327.000000)">
            <g id="TABLO" transform="translate(714.000000, 191.000000)">
                <g id="ico_passowrd" transform="translate(65.000000, 136.000000)">
                    <ellipse id="sphere-copy-9" fill="#FFFFFF" cx="28" cy="27.5" rx="28" ry="27.5"></ellipse>
                    <mask id="mask-2" fill="white">
                        <use xlink:href="#path-1"></use>
                    </mask>
                    <use id="Mask-Copy" fill="#FFCC00" xlink:href="#path-1"></use>
                </g>
            </g>
        </g>
    </g>
</svg>